# xmcd
#
# Track frame offsets: 
#        180
#        14293
#        35543
#        54125
#        65796
#        79987
#        97745
#        111212
#        123573
#        136258
#        154894
#        167461
#        181153
#        199535
#        211205
#        227792
#        243391
#        257944
#        273118
#        292892
#        308961
#
# Disc length: 4362 seconds
#
# Revision: 0
# Processed by: cddbd v1.4PL0 Copyright (c) Steve Scherf et al.
# Submitted via: ExactAudioCopy v0.90b4
#
DISCID=1d110815
DTITLE=Os Serranos - Dose Dupla vol 3: "Rio Grande Tchê" and "Capão de M
DTITLE=ato"
DYEAR=1996
DGENRE=Country
TTITLE0=Baile Da Mariquinha
TTITLE1=Andança Serrana
TTITLE2=La Puñalada
TTITLE3=Resto De Baile
TTITLE4=Te Vas Milonga
TTITLE5=Tio Mederico
TTITLE6=Que Saudade
TTITLE7=Valsa Do Cuco (Cuckoo Waltz)
TTITLE8=Gauchinha
TTITLE9=Rio Grande Tchê!
TTITLE10=Gavião
TTITLE11=Capão De Mato
TTITLE12=Novas Andanças
TTITLE13=Chico Espera
TTITLE14=Flor Nativa
TTITLE15=Quarto Centenário
TTITLE16=Alegria Do Daniel
TTITLE17=Saudade
TTITLE18=Hino Às Andorinhas
TTITLE19=Rastro Do Bugio
TTITLE20=Sanga
EXTD=
EXTT0=
EXTT1=
EXTT2=
EXTT3=
EXTT4=
EXTT5=
EXTT6=
EXTT7=
EXTT8=
EXTT9=
EXTT10=
EXTT11=
EXTT12=
EXTT13=
EXTT14=
EXTT15=
EXTT16=
EXTT17=
EXTT18=
EXTT19=
EXTT20=
PLAYORDER=
